<svg width="23" height="19" viewBox="0 0 23 19" fill="none" xmlns="http://www.w3.org/2000/svg">
<path opacity="0.7" d="M22.8008 2.3335C21.9917 2.69433 21.1226 2.93813 20.209 3.04833C21.1517 2.48055 21.857 1.58694 22.1933 0.534222C21.3075 1.06375 20.3382 1.43649 19.3273 1.63622C18.6474 0.905648 17.747 0.421415 16.7658 0.258698C15.7845 0.0959812 14.7774 0.263884 13.9006 0.736339C13.0239 1.20879 12.3267 1.95937 11.9172 2.87153C11.5077 3.78369 11.4089 4.8064 11.6361 5.78089C9.84135 5.69019 8.08563 5.22067 6.48286 4.40281C4.88009 3.58495 3.46609 2.43703 2.33262 1.03353C1.94506 1.70643 1.72221 2.48661 1.72221 3.31749C1.72178 4.06548 1.90479 4.80201 2.25499 5.46173C2.6052 6.12146 3.11178 6.68398 3.72979 7.09938C3.01306 7.07643 2.31215 6.8815 1.68539 6.53083V6.58934C1.68532 7.63842 2.04586 8.65522 2.70583 9.4672C3.3658 10.2792 4.28456 10.8363 5.3062 11.0441C4.64132 11.2252 3.94424 11.2519 3.26762 11.1222C3.55587 12.0248 4.11735 12.8142 4.87345 13.3797C5.62956 13.9452 6.54244 14.2586 7.4843 14.276C5.88544 15.5393 3.91086 16.2246 1.87821 16.2216C1.51814 16.2217 1.15838 16.2005 0.800781 16.1582C2.86405 17.4934 5.26583 18.202 7.71878 18.1993C16.0223 18.1993 20.5616 11.2772 20.5616 5.27378C20.5616 5.07873 20.5568 4.88174 20.5481 4.6867C21.431 4.044 22.1932 3.24815 22.7988 2.33642L22.8008 2.3335Z" fill="#8C84F7"/>
</svg>
