<svg width="26" height="19" viewBox="0 0 26 19" fill="none" xmlns="http://www.w3.org/2000/svg">
<path opacity="0.7" d="M22.0012 1.69118C20.365 1.00119 18.6112 0.49119 16.7771 0.201192C16.7608 0.19826 16.7439 0.20015 16.7288 0.2066C16.7136 0.213049 16.701 0.223741 16.6927 0.237192C16.4681 0.60619 16.2178 1.08719 16.0425 1.46718C14.0973 1.19542 12.1197 1.19542 10.1746 1.46718C9.97924 1.04605 9.75895 0.635414 9.51475 0.237192C9.50648 0.223575 9.49395 0.212642 9.47886 0.205852C9.46376 0.199063 9.44681 0.196739 9.43027 0.199192C7.5973 0.48919 5.84346 0.999187 4.20619 1.69018C4.1921 1.69571 4.18016 1.70513 4.17196 1.71718C0.843949 6.29215 -0.0682608 10.7541 0.379823 15.1601C0.38107 15.1709 0.384652 15.1813 0.390352 15.1908C0.396051 15.2002 0.403748 15.2085 0.412975 15.2151C2.35545 16.5375 4.52202 17.5449 6.82197 18.1951C6.838 18.1997 6.85515 18.1997 6.87118 18.195C6.8872 18.1904 6.90136 18.1814 6.9118 18.1691C7.40672 17.5501 7.84529 16.8935 8.2229 16.2061C8.22814 16.1967 8.23116 16.1863 8.23176 16.1758C8.23236 16.1652 8.23051 16.1546 8.22635 16.1447C8.2222 16.1349 8.21582 16.126 8.20766 16.1186C8.1995 16.1112 8.18975 16.1056 8.17906 16.1021C7.48822 15.8588 6.81885 15.5653 6.17711 15.2241C6.16558 15.2179 6.15587 15.2092 6.14884 15.1987C6.1418 15.1881 6.13768 15.1761 6.13683 15.1637C6.13598 15.1514 6.13844 15.139 6.14398 15.1277C6.14951 15.1164 6.15796 15.1066 6.16856 15.0991C6.30331 15.0061 6.43805 14.9091 6.56638 14.8121C6.57793 14.8034 6.59185 14.7978 6.60657 14.7961C6.6213 14.7943 6.63626 14.7964 6.6498 14.8021C10.8494 16.5661 15.3976 16.5661 19.548 14.8021C19.5616 14.796 19.5767 14.7937 19.5916 14.7953C19.6066 14.7969 19.6207 14.8023 19.6325 14.8111C19.7608 14.9091 19.8945 15.0061 20.0303 15.0991C20.041 15.1064 20.0496 15.1161 20.0553 15.1273C20.061 15.1385 20.0637 15.1508 20.063 15.1632C20.0624 15.1756 20.0585 15.1876 20.0517 15.1983C20.0448 15.2089 20.0353 15.2178 20.0239 15.2241C19.3844 15.5681 18.7192 15.8591 18.0209 16.1011C18.0101 16.1047 18.0004 16.1105 17.9922 16.1179C17.984 16.1254 17.9777 16.1344 17.9735 16.1443C17.9694 16.1542 17.9675 16.1649 17.9681 16.1755C17.9687 16.1862 17.9718 16.1966 17.977 16.2061C18.362 16.8931 18.8026 17.5471 19.2871 18.1681C19.2971 18.1808 19.3112 18.1903 19.3272 18.1954C19.3433 18.2004 19.3607 18.2006 19.3769 18.1961C21.6808 17.5477 23.8509 16.5399 25.7955 15.2151C25.805 15.2089 25.813 15.2009 25.8189 15.1916C25.8248 15.1822 25.8285 15.1719 25.8297 15.1611C26.3644 10.0671 24.9336 5.64116 22.0344 1.71918C22.0273 1.70644 22.0155 1.6965 22.0012 1.69118ZM8.85065 12.4771C7.5866 12.4771 6.54392 11.4081 6.54392 10.0971C6.54392 8.78514 7.56628 7.71714 8.85065 7.71714C10.1446 7.71714 11.1777 8.79414 11.1574 10.0971C11.1574 11.4091 10.135 12.4771 8.85065 12.4771ZM17.3792 12.4771C16.1141 12.4771 15.0725 11.4081 15.0725 10.0971C15.0725 8.78514 16.0938 7.71714 17.3792 7.71714C18.6732 7.71714 19.7063 8.79414 19.6859 10.0971C19.6859 11.4091 18.6743 12.4771 17.3792 12.4771Z" fill="#8C84F7"/>
</svg>
