<svg width="21" height="20" viewBox="0 0 21 20" fill="none" xmlns="http://www.w3.org/2000/svg">
<path opacity="0.7" fill-rule="evenodd" clip-rule="evenodd" d="M6.54734 0.257646C7.62259 0.209043 7.96543 0.198242 10.7044 0.198242C13.4434 0.198242 13.7863 0.209943 14.8606 0.257646C15.9349 0.305349 16.6683 0.473659 17.3099 0.717573C17.9818 0.966888 18.5914 1.35661 19.0956 1.86064C19.6089 2.35477 20.0049 2.95241 20.2579 3.61304C20.5073 4.24308 20.6778 4.96312 20.7273 6.01619C20.7768 7.07375 20.7878 7.41037 20.7878 10.0988C20.7878 12.7882 20.7758 13.1248 20.7273 14.1806C20.6787 15.2336 20.5073 15.9537 20.2579 16.5837C20.0049 17.2444 19.6083 17.8431 19.0956 18.3379C18.5914 18.8419 17.9818 19.2308 17.3099 19.4792C16.6683 19.724 15.9349 19.8914 14.8624 19.94C13.7863 19.9886 13.4434 19.9994 10.7044 19.9994C7.96543 19.9994 7.62259 19.9877 6.54734 19.94C5.47484 19.8923 4.74151 19.724 4.09984 19.4792C3.42694 19.2307 2.81726 18.8413 2.31326 18.3379C1.80028 17.8435 1.4033 17.2451 1.15001 16.5846C0.901594 15.9546 0.731094 15.2345 0.681594 14.1815C0.632094 13.1239 0.621094 12.7873 0.621094 10.0988C0.621094 7.40947 0.63301 7.07285 0.681594 6.01799C0.730177 4.96312 0.901594 4.24308 1.15001 3.61304C1.40367 2.95248 1.80095 2.35415 2.31418 1.85974C2.81746 1.35616 3.42653 0.966387 4.09893 0.717573C4.74059 0.473659 5.47484 0.306249 6.54734 0.257646ZM14.779 2.03975C13.7157 1.99205 13.3967 1.98215 10.7044 1.98215C8.01218 1.98215 7.69318 1.99205 6.62984 2.03975C5.64626 2.08385 5.11276 2.24496 4.75709 2.38087C4.28684 2.56088 3.95043 2.77419 3.59751 3.12072C3.26297 3.44028 3.00551 3.82931 2.84401 4.25928C2.70559 4.6085 2.54151 5.13233 2.49659 6.09809C2.44801 7.14215 2.43793 7.45537 2.43793 10.0988C2.43793 12.7423 2.44801 13.0555 2.49659 14.0996C2.54151 15.0653 2.70559 15.5892 2.84401 15.9384C3.00534 16.3677 3.26293 16.7574 3.59751 17.0769C3.92293 17.4055 4.31984 17.6584 4.75709 17.8168C5.11276 17.9527 5.64626 18.1138 6.62984 18.1579C7.69318 18.2056 8.01126 18.2155 10.7044 18.2155C13.3976 18.2155 13.7157 18.2056 14.779 18.1579C15.7626 18.1138 16.2961 17.9527 16.6518 17.8168C17.122 17.6368 17.4584 17.4235 17.8113 17.0769C18.1459 16.7574 18.4035 16.3677 18.5648 15.9384C18.7033 15.5892 18.8673 15.0653 18.9123 14.0996C18.9608 13.0555 18.9709 12.7423 18.9709 10.0988C18.9709 7.45537 18.9608 7.14215 18.9123 6.09809C18.8673 5.13233 18.7033 4.6085 18.5648 4.25928C18.3815 3.79756 18.1643 3.46724 17.8113 3.12072C17.4859 2.79226 17.0897 2.53947 16.6518 2.38087C16.2961 2.24496 15.7626 2.08385 14.779 2.03975ZM9.41651 13.1509C10.1358 13.4449 10.9367 13.4846 11.6824 13.2632C12.4282 13.0418 13.0725 12.573 13.5054 11.937C13.9383 11.3009 14.1328 10.537 14.0558 9.7758C13.9788 9.01457 13.635 8.3032 13.0832 7.76319C12.7314 7.418 12.306 7.15369 11.8377 6.98928C11.3694 6.82487 10.8698 6.76446 10.3749 6.81239C9.87994 6.86032 9.40198 7.01541 8.97541 7.26648C8.54884 7.51755 8.18428 7.85837 7.90795 8.26439C7.63163 8.67041 7.45043 9.13153 7.3774 9.61456C7.30437 10.0976 7.34132 10.5905 7.48559 11.0579C7.62986 11.5252 7.87787 11.9553 8.21175 12.3172C8.54564 12.6791 8.9571 12.9639 9.41651 13.1509ZM7.03959 6.50042C7.52087 6.02786 8.09222 5.65302 8.72103 5.39728C9.34985 5.14153 10.0238 5.0099 10.7044 5.0099C11.385 5.0099 12.059 5.14153 12.6878 5.39727C13.3166 5.65302 13.888 6.02786 14.3693 6.50042C14.8505 6.97297 15.2323 7.53397 15.4928 8.15138C15.7532 8.7688 15.8873 9.43054 15.8873 10.0988C15.8873 10.7671 15.7532 11.4289 15.4928 12.0463C15.2323 12.6637 14.8505 13.2247 14.3693 13.6972C13.3973 14.6516 12.079 15.1878 10.7044 15.1878C9.32985 15.1878 8.01157 14.6516 7.03959 13.6972C6.06762 12.7429 5.52157 11.4485 5.52157 10.0988C5.52157 8.74916 6.06762 7.45477 7.03959 6.50042ZM17.0368 5.76777C17.156 5.65731 17.2515 5.52447 17.3175 5.37713C17.3836 5.22978 17.4188 5.07092 17.4212 4.90996C17.4236 4.74899 17.3931 4.5892 17.3315 4.44002C17.2698 4.29085 17.1783 4.15534 17.0624 4.04151C16.9465 3.92767 16.8084 3.83784 16.6565 3.77732C16.5046 3.7168 16.3418 3.68683 16.1779 3.68917C16.014 3.69152 15.8522 3.72614 15.7021 3.79098C15.5521 3.85582 15.4168 3.94957 15.3043 4.06667C15.0855 4.29441 14.9657 4.59691 14.9703 4.90996C14.975 5.223 15.1037 5.52195 15.3292 5.74333C15.5546 5.96471 15.8591 6.0911 16.1779 6.09566C16.4967 6.10022 16.8048 5.98261 17.0368 5.76777Z" fill="#8C84F7"/>
</svg>
