<svg width="24" height="24" viewBox="0 0 24 24" fill="none" xmlns="http://www.w3.org/2000/svg">
<path opacity="0.7" d="M11.7104 0.834839C5.39669 0.834839 0.277344 5.8614 0.277344 12.0607C0.277344 18.2599 5.39669 23.2865 11.7104 23.2865C18.0241 23.2865 23.1434 18.2599 23.1434 12.0607C23.1434 5.8614 18.0241 0.834839 11.7104 0.834839ZM18.2435 7.19196L17.2023 8.17171C17.1104 8.23937 17.067 8.34962 17.0849 8.45737V15.6664C17.067 15.7767 17.1104 15.887 17.2023 15.9521L18.2231 16.9319V17.1499H13.0987V16.9419L14.1526 15.9371C14.2573 15.8343 14.2573 15.8043 14.2573 15.6514V9.818L11.3225 17.1248H10.9269L7.51231 9.818V14.7168C7.48168 14.9222 7.55569 15.1302 7.70371 15.2781L9.07669 16.9093V17.1273H5.17721V16.9093L6.5502 15.2781C6.62253 15.2047 6.67637 15.1157 6.70739 15.0182C6.73841 14.9208 6.74576 14.8175 6.72884 14.7168V9.05374C6.7467 8.89588 6.68545 8.74303 6.56296 8.63528L5.34309 7.19196V6.97396H9.13284L12.0574 13.276L14.6324 6.97897H18.2435V7.19196Z" fill="#8C84F7"/>
</svg>
