<svg width="24" height="23" viewBox="0 0 24 23" fill="none" xmlns="http://www.w3.org/2000/svg">
<path opacity="0.7" fill-rule="evenodd" clip-rule="evenodd" d="M23.3075 11.2422C23.3075 17.4416 18.1883 22.468 11.8744 22.468C5.56054 22.468 0.441406 17.4416 0.441406 11.2422C0.441406 5.04272 5.56054 0.0163574 11.8744 0.0163574C18.1883 0.0163574 23.3075 5.04272 23.3075 11.2422ZM19.1992 10.3609C19.384 10.6201 19.4888 10.926 19.5003 11.2422C19.5052 11.5515 19.4209 11.8559 19.257 12.1201C19.0931 12.3844 18.8564 12.5976 18.5742 12.7352C18.5875 12.8999 18.5875 13.0645 18.5742 13.2291C18.5742 15.7437 15.5902 17.7868 11.9087 17.7868C8.2273 17.7868 5.24328 15.7437 5.24328 13.2291C5.2304 13.0647 5.2304 12.8996 5.24328 12.7352C5.02526 12.635 4.83193 12.4896 4.67657 12.3091C4.52121 12.1285 4.40751 11.9171 4.34328 11.6893C4.27906 11.4615 4.26583 11.2228 4.3045 10.9895C4.34318 10.7562 4.43284 10.5339 4.56733 10.3379C4.70182 10.1419 4.87795 9.97674 5.08361 9.8539C5.28926 9.73105 5.51957 9.65339 5.7587 9.62625C5.99783 9.59911 6.24011 9.62313 6.46888 9.69667C6.69766 9.7702 6.9075 9.89151 7.08399 10.0522C8.40139 9.17497 9.95126 8.69502 11.5429 8.67146L12.3889 4.7761C12.3984 4.73101 12.4169 4.68821 12.4434 4.6502C12.4699 4.61218 12.5038 4.5797 12.5431 4.55464C12.5825 4.52958 12.6265 4.51244 12.6726 4.50421C12.7188 4.49597 12.7661 4.49682 12.8119 4.50668L15.613 5.05675C15.7498 4.82599 15.9659 4.65066 16.2225 4.56223C16.4791 4.4738 16.7594 4.47806 17.013 4.57425C17.2667 4.67044 17.4771 4.85226 17.6066 5.08707C17.736 5.32187 17.776 5.5943 17.7193 5.85544C17.6627 6.11658 17.513 6.34933 17.2973 6.51191C17.0816 6.6745 16.814 6.75627 16.5424 6.74255C16.2708 6.72883 16.0131 6.62052 15.8156 6.43706C15.618 6.2536 15.4935 6.007 15.4644 5.74152L13.0177 5.23636L12.2746 8.73882C13.8469 8.77193 15.3757 9.25152 16.6763 10.1196C16.8499 9.95569 17.0576 9.83064 17.2852 9.75304C17.5127 9.67544 17.7546 9.64714 17.9943 9.67007C18.234 9.693 18.4659 9.76663 18.6739 9.88589C18.8818 10.0052 19.0611 10.1672 19.1992 10.3609ZM8.25969 11.7408C8.17624 11.8634 8.1182 12.0009 8.08888 12.1456C8.05956 12.2902 8.05955 12.4391 8.08883 12.5837C8.14797 12.8758 8.32287 13.1329 8.57505 13.2984C8.82723 13.4639 9.13604 13.5242 9.43353 13.4661C9.58084 13.4374 9.72093 13.3804 9.84581 13.2985C9.9707 13.2166 10.0779 13.1113 10.1614 12.9887C10.3299 12.7411 10.3914 12.4379 10.3322 12.1458C10.2731 11.8537 10.0982 11.5966 9.84602 11.4311C9.59384 11.2657 9.28504 11.2053 8.98754 11.2634C8.69005 11.3214 8.42823 11.4932 8.25969 11.7408ZM11.8859 16.3162C12.9005 16.3574 13.899 16.0973 14.7098 15.4968C14.7705 15.4387 14.8051 15.3594 14.8062 15.2762C14.8073 15.1931 14.7747 15.1129 14.7155 15.0533C14.6863 15.0239 14.6514 15.0003 14.6128 14.9841C14.5743 14.9678 14.5329 14.9592 14.4909 14.9587C14.4062 14.9576 14.3246 14.9897 14.2639 15.0477C13.5701 15.5365 12.7271 15.778 11.8744 15.7325C11.0228 15.7699 10.1838 15.5203 9.49636 15.0253C9.43713 14.9775 9.36192 14.9531 9.28538 14.9568C9.20884 14.9605 9.13643 14.992 9.08225 15.0452C9.02806 15.0985 8.99596 15.1695 8.9922 15.2447C8.98845 15.3199 9.01329 15.3937 9.06191 15.4519C9.87306 16.052 10.8711 16.3575 11.8859 16.3162ZM13.8685 13.3433C14.0572 13.4668 14.2668 13.5771 14.4926 13.5771C14.6477 13.5789 14.8015 13.5497 14.9447 13.4912C15.0878 13.4327 15.2174 13.3462 15.3254 13.237C15.4335 13.1278 15.5177 12.9981 15.5731 12.8559C15.6284 12.7136 15.6537 12.5618 15.6473 12.4097C15.6473 12.2158 15.596 12.0252 15.4986 11.8565C15.4012 11.6878 15.261 11.5467 15.0916 11.4471C14.9222 11.3474 14.7294 11.2926 14.532 11.2878C14.3345 11.2831 14.1392 11.3287 13.9651 11.4201C13.7909 11.5115 13.6438 11.6456 13.5381 11.8094C13.4325 11.9733 13.3718 12.1612 13.3621 12.3548C13.3524 12.5485 13.3939 12.7414 13.4827 12.9146C13.5714 13.0878 13.7044 13.2355 13.8685 13.3433Z" fill="#8C84F7"/>
</svg>
