<svg width="20" height="20" viewBox="0 0 20 20" fill="none" xmlns="http://www.w3.org/2000/svg">
<g clip-path="url(#clip0_1_681)">
<path d="M9.99976 19.677C15.5226 19.677 19.9998 15.4237 19.9998 10.177C19.9998 4.9303 15.5226 0.677002 9.99976 0.677002C4.47691 0.677002 -0.000244141 4.9303 -0.000244141 10.177C-0.000244141 15.4237 4.47691 19.677 9.99976 19.677Z" fill="#F0F0F0"/>
<path d="M9.56519 10.177H20C20 9.31956 19.8796 8.4889 19.6555 7.69873H9.56519V10.177Z" fill="#D80027"/>
<path d="M9.56519 5.22046H18.5322C17.9201 4.2715 17.1374 3.43272 16.2248 2.74219H9.56519V5.22046Z" fill="#D80027"/>
<path d="M10.001 19.677C12.3544 19.677 14.5176 18.9043 16.2258 17.6118H3.77612C5.48433 18.9043 7.64749 19.677 10.001 19.677Z" fill="#D80027"/>
<path d="M1.46699 15.1336H18.5315C19.023 14.3717 19.4041 13.539 19.6548 12.6553H0.34375C0.594414 13.539 0.975547 14.3717 1.46699 15.1336Z" fill="#D80027"/>
<path d="M4.63194 2.16056H5.54323L4.69558 2.74559L5.01937 3.69221L4.17175 3.10718L3.32413 3.69221L3.60382 2.87443C2.85749 3.46503 2.20335 4.15697 1.66429 4.92796H1.95628L1.41671 5.30035C1.33265 5.43357 1.25202 5.56891 1.17476 5.70625L1.43241 6.45961L0.951709 6.12781C0.832217 6.36832 0.72292 6.61424 0.624678 6.86529L0.908545 7.69535H1.95628L1.10862 8.28038L1.43241 9.227L0.584795 8.64197L0.0770605 8.99243C0.0262402 9.38052 -0.000244141 9.77581 -0.000244141 10.177H9.99976C9.99976 4.93033 9.99976 4.31179 9.99976 0.677002C8.02429 0.677002 6.18276 1.2214 4.63194 2.16056ZM5.01937 9.227L4.17175 8.64197L3.32413 9.227L3.64792 8.28038L2.80026 7.69535H3.848L4.17175 6.74873L4.4955 7.69535H5.54323L4.69558 8.28038L5.01937 9.227ZM4.69558 5.51298L5.01937 6.45961L4.17175 5.87458L3.32413 6.45961L3.64792 5.51298L2.80026 4.92796H3.848L4.17175 3.98133L4.4955 4.92796H5.54323L4.69558 5.51298ZM8.60632 9.227L7.7587 8.64197L6.91108 9.227L7.23487 8.28038L6.38722 7.69535H7.43495L7.7587 6.74873L8.08245 7.69535H9.13019L8.28253 8.28038L8.60632 9.227ZM8.28253 5.51298L8.60632 6.45961L7.7587 5.87458L6.91108 6.45961L7.23487 5.51298L6.38722 4.92796H7.43495L7.7587 3.98133L8.08245 4.92796H9.13019L8.28253 5.51298ZM8.28253 2.74559L8.60632 3.69221L7.7587 3.10718L6.91108 3.69221L7.23487 2.74559L6.38722 2.16056H7.43495L7.7587 1.21394L8.08245 2.16056H9.13019L8.28253 2.74559Z" fill="#0052B4"/>
</g>
<defs>
<clipPath id="clip0_1_681">
<rect width="20" height="19" fill="white" transform="translate(0 0.677002)"/>
</clipPath>
</defs>
</svg>
