<svg width="28" height="19" viewBox="0 0 28 19" fill="none" xmlns="http://www.w3.org/2000/svg">
<path d="M26.9764 3.26738C26.8213 2.71012 26.5192 2.2056 26.1022 1.80745C25.6734 1.39707 25.1479 1.10351 24.5752 0.954488C22.4319 0.385461 13.8451 0.385461 13.8451 0.385461C10.2654 0.344437 6.68655 0.524872 3.12878 0.925749C2.55609 1.08578 2.03154 1.3859 1.60178 1.79941C1.17952 2.20865 0.873661 2.7133 0.713886 3.26623C0.330074 5.34892 0.143593 7.46363 0.156954 9.58186C0.143259 11.6982 0.329284 13.8122 0.713886 15.8975C0.870238 16.4481 1.17495 16.9505 1.59836 17.3563C2.02176 17.7621 2.54902 18.0552 3.12878 18.2104C5.30058 18.7783 13.8451 18.7783 13.8451 18.7783C17.4294 18.8193 21.0129 18.6389 24.5752 18.238C25.1479 18.0889 25.6734 17.7954 26.1022 17.385C26.5191 16.9869 26.8208 16.4824 26.9753 15.9251C27.3691 13.8432 27.5606 11.7276 27.547 9.6083C27.5767 7.48003 27.3854 5.35446 26.9764 3.26623V3.26738ZM11.1153 13.5179V5.64695L18.2595 9.58301L11.1153 13.5179Z" fill="#8C84F7"/>
</svg>
