<svg width="20" height="20" fill="none" xmlns="http://www.w3.org/2000/svg"><g clip-path="url(#a)"><path d="M10 19.677c5.523 0 10-4.253 10-9.5s-4.477-9.5-10-9.5-10 4.253-10 9.5 4.477 9.5 10 9.5Z" fill="#F0F0F0"/><path d="M9.565 10.177H20c0-.857-.12-1.688-.345-2.478H9.566v2.478Zm0-4.957h8.967a9.725 9.725 0 0 0-2.307-2.478h-6.66V5.22Zm.436 14.457a10.29 10.29 0 0 0 6.225-2.065H3.776a10.29 10.29 0 0 0 6.225 2.065Zm-8.534-4.543h17.065a9.204 9.204 0 0 0 1.123-2.479H.344c.25.884.632 1.717 1.123 2.479Z" fill="#D80027"/><path d="M4.632 2.16h.911l-.847.586.323.946-.847-.585-.848.585.28-.818a9.739 9.739 0 0 0-1.94 2.054h.292l-.54.372a9.363 9.363 0 0 0-.241.406l.257.754-.48-.332c-.12.24-.23.486-.327.737l.284.83h1.047l-.847.585.323.947-.847-.585-.508.35C.027 9.381 0 9.776 0 10.177h10v-9.5a10.33 10.33 0 0 0-5.368 1.484Zm.387 7.067-.847-.585-.848.585.324-.947-.848-.585h1.048l.324-.946.324.946h1.047l-.847.585.323.947Zm-.323-3.714.323.947-.847-.585-.848.585.324-.947-.848-.585h1.048l.324-.947.324.947h1.047l-.847.585Zm3.91 3.714-.847-.585-.848.585.324-.947-.848-.585h1.048l.324-.946.323.946H9.13l-.847.585.323.947Zm-.323-3.714.323.947-.847-.585-.848.585.324-.947-.848-.585h1.048l.324-.947.323.947H9.13l-.847.585Zm0-2.767.323.946-.847-.585-.848.585.324-.946-.848-.585h1.048l.324-.947.323.947H9.13l-.847.585Z" fill="#0052B4"/></g><defs><clipPath id="a"><path fill="#fff" transform="translate(0 .677)" d="M0 0h20v19H0z"/></clipPath></defs></svg>