<svg width="23" height="19" fill="none" xmlns="http://www.w3.org/2000/svg"><path opacity=".7" d="M22.8 2.333a8.964 8.964 0 0 1-2.591.715A4.55 4.55 0 0 0 22.193.534a8.976 8.976 0 0 1-2.866 1.102 4.49 4.49 0 0 0-5.427-.9 4.533 4.533 0 0 0-1.983 2.136 4.571 4.571 0 0 0-.28 2.909 12.738 12.738 0 0 1-5.154-1.378 12.834 12.834 0 0 1-4.15-3.37 4.564 4.564 0 0 0-.61 2.284 4.567 4.567 0 0 0 .532 2.145c.35.66.857 1.222 1.475 1.637a4.48 4.48 0 0 1-2.045-.568v.058c0 1.05.36 2.066 1.02 2.878a4.51 4.51 0 0 0 2.601 1.577 4.519 4.519 0 0 1-2.038.078 4.55 4.55 0 0 0 1.605 2.258 4.497 4.497 0 0 0 2.611.896 9.02 9.02 0 0 1-6.683 1.882A12.706 12.706 0 0 0 7.719 18.2c8.303 0 12.843-6.922 12.843-12.925 0-.195-.005-.392-.014-.587a9.209 9.209 0 0 0 2.25-2.35l.003-.004Z" fill="#8C84F7"/></svg>