<svg width="21" height="20" fill="none" xmlns="http://www.w3.org/2000/svg"><path opacity=".7" fill-rule="evenodd" clip-rule="evenodd" d="M6.547.258c1.076-.049 1.418-.06 4.157-.06 2.74 0 3.082.012 4.157.06 1.074.047 1.807.216 2.449.46a4.974 4.974 0 0 1 1.786 1.143 4.826 4.826 0 0 1 1.162 1.752c.25.63.42 1.35.47 2.403.049 1.058.06 1.394.06 4.083 0 2.69-.012 3.026-.06 4.082-.05 1.053-.22 1.773-.47 2.403-.253.66-.65 1.26-1.162 1.754a4.955 4.955 0 0 1-1.786 1.141c-.642.245-1.375.412-2.448.461-1.076.049-1.419.06-4.158.06-2.739 0-3.081-.012-4.157-.06-1.072-.048-1.805-.216-2.447-.46a4.957 4.957 0 0 1-1.787-1.142 4.846 4.846 0 0 1-1.163-1.753c-.248-.63-.419-1.35-.468-2.404-.05-1.057-.06-1.394-.06-4.082 0-2.69.011-3.026.06-4.081.048-1.055.22-1.775.468-2.405A4.85 4.85 0 0 1 2.314 1.86 4.952 4.952 0 0 1 4.1.718C4.74.474 5.475.306 6.547.258ZM14.78 2.04c-1.063-.048-1.382-.058-4.075-.058-2.692 0-3.01.01-4.074.058-.984.044-1.517.205-1.873.34-.47.18-.807.394-1.16.74-.334.32-.591.71-.753 1.14-.138.349-.302.872-.347 1.838-.049 1.044-.06 1.357-.06 4 0 2.644.011 2.957.06 4.002.045.965.209 1.49.347 1.838.161.43.419.82.754 1.139.325.328.722.581 1.16.74.355.136.888.297 1.872.34 1.063.049 1.381.058 4.074.058 2.694 0 3.012-.01 4.075-.057.984-.044 1.517-.205 1.873-.341.47-.18.806-.393 1.16-.74.334-.32.591-.71.753-1.139.138-.349.302-.873.347-1.838.049-1.044.059-1.358.059-4.001 0-2.644-.01-2.957-.059-4-.045-.967-.209-1.49-.347-1.84a3.068 3.068 0 0 0-.754-1.138 3.134 3.134 0 0 0-1.16-.74c-.355-.136-.888-.297-1.872-.341ZM9.417 13.15c.719.295 1.52.335 2.265.113a3.36 3.36 0 0 0 1.823-1.326 3.256 3.256 0 0 0-.422-4.174 3.373 3.373 0 0 0-1.245-.774 3.422 3.422 0 0 0-2.863.277 3.339 3.339 0 0 0-1.067.998 3.246 3.246 0 0 0-.422 2.794c.144.467.392.897.726 1.26a3.37 3.37 0 0 0 1.205.833ZM7.04 6.5a5.19 5.19 0 0 1 1.68-1.103 5.266 5.266 0 0 1 3.967 0c.629.256 1.2.63 1.681 1.103a5.086 5.086 0 0 1 1.124 1.651 5.01 5.01 0 0 1 0 3.895 5.085 5.085 0 0 1-1.124 1.651 5.232 5.232 0 0 1-3.665 1.49 5.232 5.232 0 0 1-3.664-1.49A5.042 5.042 0 0 1 5.522 10.1c0-1.35.546-2.644 1.518-3.599Zm9.997-.732a1.204 1.204 0 0 0 .384-.858 1.185 1.185 0 0 0-.359-.868 1.227 1.227 0 0 0-.884-.353 1.245 1.245 0 0 0-.874.378 1.192 1.192 0 0 0 .025 1.676 1.238 1.238 0 0 0 1.708.024Z" fill="#8C84F7"/></svg>