<svg width="26" height="19" fill="none" xmlns="http://www.w3.org/2000/svg"><path opacity=".7" d="M22.001 1.691c-1.636-.69-3.39-1.2-5.224-1.49a.085.085 0 0 0-.048.006.078.078 0 0 0-.036.03c-.225.37-.475.85-.65 1.23a21.219 21.219 0 0 0-5.868 0 12.066 12.066 0 0 0-.66-1.23.08.08 0 0 0-.036-.031.087.087 0 0 0-.049-.007A22.567 22.567 0 0 0 4.206 1.69a.074.074 0 0 0-.034.027C.844 6.292-.068 10.754.38 15.16a.08.08 0 0 0 .033.055 22.045 22.045 0 0 0 6.409 2.98.089.089 0 0 0 .09-.026 13.73 13.73 0 0 0 1.31-1.963.07.07 0 0 0-.014-.087.08.08 0 0 0-.029-.017c-.69-.243-1.36-.537-2.002-.878a.079.079 0 0 1-.028-.025.072.072 0 0 1-.005-.071.076.076 0 0 1 .025-.029c.134-.093.269-.19.397-.287a.085.085 0 0 1 .083-.01c4.2 1.764 8.749 1.764 12.899 0a.085.085 0 0 1 .085.01c.128.097.262.194.397.287.011.007.02.017.025.028a.07.07 0 0 1-.003.071.078.078 0 0 1-.028.026 13.64 13.64 0 0 1-2.003.877.076.076 0 0 0-.047.043.071.071 0 0 0 .003.062 15.56 15.56 0 0 0 1.31 1.962.08.08 0 0 0 .04.027.088.088 0 0 0 .05.001 21.972 21.972 0 0 0 6.419-2.98.078.078 0 0 0 .023-.024.06.06 0 0 0 .01-.03c.535-5.095-.895-9.52-3.795-13.443a.063.063 0 0 0-.033-.028ZM8.851 12.477c-1.264 0-2.307-1.069-2.307-2.38 0-1.312 1.022-2.38 2.307-2.38 1.294 0 2.327 1.077 2.306 2.38 0 1.312-1.022 2.38-2.306 2.38Zm8.528 0c-1.265 0-2.307-1.069-2.307-2.38 0-1.312 1.022-2.38 2.307-2.38 1.294 0 2.327 1.077 2.307 2.38 0 1.312-1.012 2.38-2.307 2.38Z" fill="#8C84F7"/></svg>