<svg width="28" height="19" fill="none" xmlns="http://www.w3.org/2000/svg"><path d="M26.976 3.267a3.207 3.207 0 0 0-.874-1.46 3.474 3.474 0 0 0-1.527-.853C22.432.385 13.845.385 13.845.385a87.19 87.19 0 0 0-10.716.54 3.6 3.6 0 0 0-1.527.874c-.422.41-.728.914-.888 1.467a33.677 33.677 0 0 0-.557 6.316c-.014 2.116.172 4.23.557 6.316.156.55.46 1.053.884 1.458.424.406.951.7 1.53.854 2.173.568 10.717.568 10.717.568 3.584.041 7.168-.14 10.73-.54a3.475 3.475 0 0 0 1.527-.853 3.2 3.2 0 0 0 .873-1.46c.394-2.082.586-4.197.572-6.317a30.764 30.764 0 0 0-.57-6.342v.001Zm-15.86 10.25v-7.87l7.143 3.936-7.144 3.935Z" fill="#8C84F7"/></svg>