<svg width="24" height="24" fill="none" xmlns="http://www.w3.org/2000/svg"><path opacity=".7" d="M11.71.835C5.397.835.277 5.86.277 12.06c0 6.199 5.12 11.226 11.433 11.226 6.314 0 11.433-5.027 11.433-11.226 0-6.2-5.119-11.226-11.433-11.226Zm6.534 6.357-1.042.98a.294.294 0 0 0-.117.285v7.21a.29.29 0 0 0 .117.285l1.021.98v.218H13.1v-.208l1.054-1.005c.104-.103.104-.133.104-.286V9.818l-2.934 7.307h-.396L7.512 9.818v4.899a.66.66 0 0 0 .192.561l1.373 1.631v.218h-3.9v-.218l1.373-1.63a.652.652 0 0 0 .179-.562V9.054a.481.481 0 0 0-.166-.419l-1.22-1.443v-.218h3.79l2.924 6.302 2.575-6.297h3.612v.213Z" fill="#8C84F7"/></svg>